<svg width="32" height="32" viewBox="0 0 32 32" fill="none" xmlns="http://www.w3.org/2000/svg">
<rect width="32" height="32" fill="white"/>
<path d="M19.7056 12.2944C19.7056 11.3117 19.3152 10.3691 18.6202 9.6742C17.9253 8.97927 16.9828 8.58887 16 8.58887C15.0172 8.58887 14.0747 8.97927 13.3798 9.6742C12.6848 10.3691 12.2944 11.3117 12.2944 12.2944H8.58887V21.5583C8.58887 22.0497 8.78407 22.521 9.13153 22.8685C9.479 23.2159 9.95026 23.4111 10.4417 23.4111H17.2352V22.1759H10.4417C10.2779 22.1759 10.1208 22.1109 10.0049 21.9951C9.88912 21.8792 9.82406 21.7221 9.82406 21.5583V13.5296H12.2944V14.7648H13.5296V13.5296H18.4704V14.7648H19.7056V13.5296H22.1759V17.2352H23.4111V12.2944H19.7056ZM13.5296 12.2944C13.5296 11.6392 13.7899 11.0109 14.2532 10.5476C14.7165 10.0843 15.3448 9.82406 16 9.82406C16.6552 9.82406 17.2835 10.0843 17.7468 10.5476C18.2101 11.0109 18.4704 11.6392 18.4704 12.2944H13.5296Z" fill="#1D1D1D"/>
<path d="M21.5583 18.4703H20.3231V20.3231H18.4703V21.5583H20.3231V23.4111H21.5583V21.5583H23.4111V20.3231H21.5583V18.4703Z" fill="#1D1D1D"/>
</svg>
