<svg width="24" height="25" viewBox="0 0 24 25" fill="none" xmlns="http://www.w3.org/2000/svg">
<g clip-path="url(#clip0_3009_2434)">
<path d="M24 12.4089C24 18.3979 19.606 23.3629 13.87 24.2639V15.9009H16.659L17.19 12.4409H13.87V10.1959C13.87 9.24894 14.334 8.32694 15.82 8.32694H17.329V5.38094C17.329 5.38094 15.959 5.14694 14.65 5.14694C11.916 5.14694 10.13 6.80394 10.13 9.80294V12.4399H7.091V15.8999H10.13V24.2629C4.395 23.3609 0 18.3969 0 12.4089C0 5.78194 5.373 0.408936 12 0.408936C18.627 0.408936 24 5.78094 24 12.4089Z" fill="#FFE9DC"/>
</g>
<defs>
<clipPath id="clip0_3009_2434">
<rect width="24" height="24" fill="white" transform="translate(0 0.335938)"/>
</clipPath>
</defs>
</svg>
