<svg width="20" height="20" viewBox="0 0 20 20" fill="none" xmlns="http://www.w3.org/2000/svg">
<g clip-path="url(#clip0_5766_111)">
<path d="M20 18.8216L14.7817 13.6033C16.1372 11.9454 16.8036 9.83002 16.6432 7.69457C16.4828 5.55913 15.5077 3.56705 13.9197 2.13037C12.3316 0.693699 10.2522 -0.0776494 8.11137 -0.0241229C5.97058 0.0294036 3.93225 0.90371 2.41801 2.41795C0.903771 3.93219 0.0294646 5.97052 -0.0240619 8.11131C-0.0775884 10.2521 0.69376 12.3316 2.13044 13.9196C3.56711 15.5076 5.55919 16.4827 7.69464 16.6431C9.83008 16.8036 11.9455 16.1371 13.6033 14.7816L18.8217 19.9999L20 18.8216ZM8.33333 14.9999C7.01479 14.9999 5.72586 14.6089 4.62953 13.8764C3.53321 13.1439 2.67872 12.1027 2.17414 10.8845C1.66955 9.66632 1.53753 8.32588 1.79477 7.03267C2.052 5.73946 2.68694 4.55158 3.61929 3.61923C4.55164 2.68688 5.73953 2.05194 7.03273 1.7947C8.32594 1.53747 9.66638 1.66949 10.8846 2.17408C12.1027 2.67866 13.1439 3.53314 13.8765 4.62947C14.609 5.7258 15 7.01473 15 8.33327C14.998 10.1008 14.295 11.7953 13.0452 13.0451C11.7954 14.2949 10.1008 14.998 8.33333 14.9999Z" fill="white"/>
</g>
<defs>
<clipPath id="clip0_5766_111">
<rect width="20" height="20" fill="white"/>
</clipPath>
</defs>
</svg>
