<svg width="24" height="25" viewBox="0 0 24 25" fill="none" xmlns="http://www.w3.org/2000/svg">
<g clip-path="url(#clip0_3009_2429)">
<path d="M12 2.49794C15.204 2.49794 15.584 2.50994 16.849 2.56794C18.157 2.62794 19.504 2.92594 20.457 3.87894C21.419 4.84094 21.708 6.17494 21.768 7.48694C21.826 8.75194 21.838 9.13194 21.838 12.3359C21.838 15.5399 21.826 15.9199 21.768 17.1849C21.709 18.4859 21.404 19.8459 20.457 20.7929C19.495 21.7549 18.162 22.0439 16.849 22.1039C15.584 22.1619 15.204 22.1739 12 22.1739C8.796 22.1739 8.416 22.1619 7.151 22.1039C5.86 22.0449 4.482 21.7329 3.543 20.7929C2.586 19.8359 2.292 18.4889 2.232 17.1849C2.174 15.9199 2.162 15.5399 2.162 12.3359C2.162 9.13194 2.174 8.75194 2.232 7.48694C2.291 6.19094 2.599 4.82294 3.543 3.87894C4.503 2.91894 5.842 2.62794 7.151 2.56794C8.416 2.50994 8.796 2.49794 12 2.49794ZM12 0.335938C8.741 0.335938 8.332 0.349937 7.052 0.407937C5.197 0.492938 3.355 1.00894 2.014 2.34994C0.668 3.69594 0.157 5.53394 0.072 7.38794C0.014 8.66794 0 9.07694 0 12.3359C0 15.5949 0.014 16.0039 0.072 17.2839C0.157 19.1369 0.675 20.9839 2.014 22.3219C3.359 23.6669 5.2 24.1789 7.052 24.2639C8.332 24.3219 8.741 24.3359 12 24.3359C15.259 24.3359 15.668 24.3219 16.948 24.2639C18.802 24.1789 20.646 23.6619 21.986 22.3219C23.333 20.9749 23.843 19.1379 23.928 17.2839C23.986 16.0039 24 15.5949 24 12.3359C24 9.07694 23.986 8.66794 23.928 7.38794C23.843 5.53294 23.326 3.68994 21.986 2.34994C20.643 1.00694 18.797 0.491937 16.948 0.407937C15.668 0.349937 15.259 0.335938 12 0.335938Z" fill="#FFE9DC"/>
<path d="M12 6.17383C8.597 6.17383 5.838 8.93283 5.838 12.3358C5.838 15.7388 8.597 18.4978 12 18.4978C15.403 18.4978 18.162 15.7388 18.162 12.3358C18.162 8.93283 15.403 6.17383 12 6.17383ZM12 16.3358C9.791 16.3358 8 14.5448 8 12.3358C8 10.1268 9.791 8.33583 12 8.33583C14.209 8.33583 16 10.1268 16 12.3358C16 14.5448 14.209 16.3358 12 16.3358Z" fill="#FFE9DC"/>
<path d="M18.406 7.36999C19.2013 7.36999 19.846 6.72528 19.846 5.92999C19.846 5.1347 19.2013 4.48999 18.406 4.48999C17.6107 4.48999 16.966 5.1347 16.966 5.92999C16.966 6.72528 17.6107 7.36999 18.406 7.36999Z" fill="#FFE9DC"/>
</g>
<defs>
<clipPath id="clip0_3009_2429">
<rect width="24" height="24" fill="white" transform="translate(0 0.335938)"/>
</clipPath>
</defs>
</svg>
