<svg width="102" height="24" viewBox="0 0 102 24" fill="none" xmlns="http://www.w3.org/2000/svg">
<g clip-path="url(#clip0_7_3506)">
<path d="M101.185 20.3306C101.01 20.2136 100.776 20.2721 100.674 20.4621C99.6361 22.3622 97.8675 23.0345 96.289 23.0345C92.7227 23.0345 90.8226 19.4975 90.618 15.3173C90.6034 15.0981 90.6034 14.8788 90.6034 14.6596V14.645H100.835C100.981 14.645 101.098 14.5281 101.098 14.3819C101.171 11.9849 100.089 7.41016 94.7981 7.41016C90.1795 7.41016 86.2188 10.8449 86.2188 15.6535C86.2188 20.5498 90.3257 23.9991 94.5643 23.9991C97.2244 23.9991 100.075 22.6545 101.375 20.4475L101.185 20.3306ZM93.9943 7.8194C96.0843 8.28711 96.7859 11.868 96.6836 14.2504H90.6034C90.6765 10.4649 92.1088 7.8194 93.9943 7.8194Z" fill="#1D1D1D"/>
<path d="M67.9355 20.4621C66.8978 22.3622 65.1293 23.0345 63.5508 23.0345C59.9845 23.0345 58.0845 19.4975 57.8798 15.3173C57.8652 15.0981 57.8652 14.8788 57.8652 14.6596V14.645H68.0963C68.2425 14.645 68.3594 14.5281 68.3594 14.3819C68.4325 11.9849 67.3509 7.41016 62.06 7.41016C57.4414 7.41016 53.4805 10.8449 53.4805 15.6535C53.4805 20.5498 57.5875 23.9991 61.8261 23.9991C64.4862 23.9991 67.3363 22.6545 68.6371 20.4475L68.4763 20.3306C68.2863 20.2136 68.0378 20.2721 67.9355 20.4621ZM61.2561 7.8194C63.3462 8.28711 64.0477 11.868 63.9454 14.2504H57.8652C57.9529 10.4649 59.3853 7.8194 61.2561 7.8194Z" fill="#1D1D1D"/>
<path d="M35.6621 0V19.4829C35.6621 21.9822 37.6791 23.9992 40.1784 23.9992V4.51629C40.1784 2.0316 38.1614 0 35.6621 0Z" fill="#1D1D1D"/>
<path d="M42.9407 7.14697C42.7069 7.14697 42.5169 7.32236 42.5169 7.55622C42.4876 7.55622 42.5023 7.55622 42.5169 7.55622C45.2939 8.24316 46.887 12.131 46.5362 16.9542C46.2731 20.5935 45.0746 23.2536 42.5169 23.5898C42.5169 23.8236 42.7069 24.0137 42.9554 23.999C43.9931 23.9552 45.0162 23.7213 45.9662 23.3121C49.9856 21.5728 52.3972 16.7496 50.4094 12.1894C48.9917 8.94472 45.9954 7.24928 42.9407 7.14697Z" fill="#1D1D1D"/>
<path d="M0 0V19.4829C0 21.9822 2.01699 23.9992 4.51629 23.9992V4.51629C4.51629 2.0316 2.49931 0 0 0Z" fill="#1D1D1D"/>
<path d="M7.27863 7.14697C7.04477 7.14697 6.85477 7.32236 6.85477 7.55622C6.82554 7.55622 6.84015 7.55622 6.85477 7.55622C9.63178 8.24316 11.2249 12.131 10.8741 16.9542C10.611 20.5935 9.41254 23.2536 6.85477 23.5898C6.85477 23.8236 7.04477 24.0137 7.29324 23.999C8.33097 23.9552 9.35408 23.7213 10.3041 23.3121C14.3235 21.5728 16.7351 16.7496 14.7473 12.1894C13.3296 8.94472 10.3333 7.24928 7.27863 7.14697Z" fill="#1D1D1D"/>
<path d="M32.2578 20.4621C31.2201 22.3622 29.4516 23.0345 27.873 23.0345C24.3068 23.0345 22.4067 19.4975 22.2021 15.3173C22.1875 15.0981 22.1875 14.8788 22.1875 14.6596V14.645H32.4186C32.5647 14.645 32.6817 14.5281 32.6817 14.3819C32.7547 11.9849 31.6732 7.41016 26.3822 7.41016C21.7636 7.41016 17.8027 10.8449 17.8027 15.6535C17.8027 20.5498 21.9098 23.9991 26.1484 23.9991C28.8085 23.9991 31.6585 22.6545 32.9594 20.4475L32.7986 20.3306C32.594 20.2136 32.3601 20.2721 32.2578 20.4621ZM25.5784 7.8194C27.6684 8.28711 28.37 11.868 28.2677 14.2504H22.1875C22.2606 10.4649 23.6929 7.8194 25.5784 7.8194Z" fill="#1D1D1D"/>
<path d="M84.6406 20.5062C83.6029 22.3917 81.8344 23.0494 80.2412 23.0494C76.4996 23.0494 74.5703 19.1324 74.5703 14.3968C74.5703 11.4298 75.3303 9.07666 76.9527 8.19971C76.9527 7.90739 76.675 7.68815 76.3827 7.76123C72.831 8.71126 70.1855 11.7367 70.1855 15.6684C70.1855 20.5062 74.2487 23.9994 78.5312 23.9994C81.1913 23.9994 84.0414 22.6548 85.3422 20.4478L85.2252 20.3601C85.0206 20.2285 84.7575 20.287 84.6406 20.5062Z" fill="#1D1D1D"/>
<path d="M78.6032 7.98017C79.9625 8.85712 81.9502 10.8303 83.2072 12.2042L84.4203 8.72558C83.0756 8.02402 80.854 7.41016 78.8809 7.41016H78.764C78.5886 7.41016 78.457 7.55631 78.457 7.71709C78.457 7.83402 78.5155 7.92171 78.6032 7.98017Z" fill="#1D1D1D"/>
<path d="M93.7763 2.30943L98.0003 5.15952L98.1757 5.02798L93.864 0.0585938H93.6886L89.377 5.02798L89.5523 5.15952L93.7763 2.30943Z" fill="#1D1D1D"/>
</g>
<defs>
<clipPath id="clip0_7_3506">
<rect width="102" height="24" fill="white"/>
</clipPath>
</defs>
</svg>
