<svg width="24" height="25" viewBox="0 0 24 25" fill="none" xmlns="http://www.w3.org/2000/svg">
<g clip-path="url(#clip0_3009_2437)">
<path d="M12.01 0.335938C5.388 0.335938 0.0200005 5.70394 0.0200005 12.3259C0.0200005 17.4079 3.178 21.7499 7.638 23.4969C7.529 22.5499 7.441 21.0889 7.677 20.0529C7.894 19.1149 9.078 14.0919 9.078 14.0919C9.078 14.0919 8.723 13.3719 8.723 12.3159C8.723 10.6479 9.69 9.40494 10.894 9.40494C11.92 9.40494 12.414 10.1749 12.414 11.0929C12.414 12.1189 11.763 13.6589 11.417 15.0899C11.131 16.2839 12.019 17.2609 13.193 17.2609C15.325 17.2609 16.963 15.0109 16.963 11.7739C16.963 8.90194 14.901 6.89894 11.95 6.89894C8.536 6.89894 6.532 9.45494 6.532 12.0999C6.532 13.1259 6.927 14.2319 7.42 14.8339C7.52 14.9509 7.53 15.0599 7.5 15.1779C7.411 15.5529 7.204 16.3719 7.164 16.5399C7.115 16.7569 6.986 16.8059 6.759 16.6979C5.259 15.9969 4.321 13.8159 4.321 12.0499C4.321 8.26994 7.064 4.79694 12.245 4.79694C16.4 4.79694 19.636 7.75794 19.636 11.7249C19.636 15.8599 17.031 19.1859 13.419 19.1859C12.205 19.1859 11.06 18.5539 10.676 17.8039C10.676 17.8039 10.074 20.0929 9.926 20.6559C9.66 21.7019 8.929 23.0049 8.436 23.8039C9.562 24.1479 10.747 24.3359 11.99 24.3359C18.612 24.3359 23.98 18.9679 23.98 12.3459C24 5.70394 18.632 0.335938 12.01 0.335938Z" fill="#FFE9DC"/>
</g>
<defs>
<clipPath id="clip0_3009_2437">
<rect width="24" height="24" fill="white" transform="translate(0 0.335938)"/>
</clipPath>
</defs>
</svg>
