<svg width="24" height="25" viewBox="0 0 24 25" fill="none" xmlns="http://www.w3.org/2000/svg">
<g clip-path="url(#clip0_3009_2442)">
<path d="M22.465 10.2019C20.326 10.2019 18.343 9.51794 16.725 8.35594V16.7409C16.725 20.9289 13.318 24.3349 9.131 24.3349C7.513 24.3349 6.012 23.8249 4.779 22.9589C2.821 21.5839 1.537 19.3099 1.537 16.7409C1.537 12.5529 4.944 9.14594 9.132 9.14594C9.48 9.14594 9.82 9.17494 10.155 9.21994V10.1969V13.4319C9.831 13.3309 9.489 13.2719 9.132 13.2719C7.22 13.2719 5.664 14.8279 5.664 16.7409C5.664 18.0729 6.42 19.2299 7.524 19.8109C8.005 20.0639 8.552 20.2089 9.133 20.2089C11.001 20.2089 12.525 18.7229 12.595 16.8709L12.598 0.335938H16.724C16.724 0.693938 16.759 1.04294 16.821 1.38294C17.112 2.95494 18.045 4.30394 19.338 5.14694C20.238 5.73394 21.312 6.07694 22.464 6.07694L22.465 10.2019Z" fill="#FFE9DC"/>
</g>
<defs>
<clipPath id="clip0_3009_2442">
<rect width="24" height="24" fill="white" transform="translate(0 0.335938)"/>
</clipPath>
</defs>
</svg>
