<svg width="24" height="25" viewBox="0 0 24 25" fill="none" xmlns="http://www.w3.org/2000/svg">
<g clip-path="url(#clip0_3009_2440)">
<path d="M21.543 7.44003C21.557 7.65103 21.557 7.86303 21.557 8.07603C21.557 14.583 16.603 22.086 7.547 22.086V22.082C4.872 22.086 2.252 21.32 -3.57628e-07 19.875C0.389 19.922 0.78 19.945 1.172 19.946C3.39 19.948 5.544 19.204 7.287 17.834C5.18 17.794 3.332 16.42 2.687 14.414C3.425 14.556 4.185 14.527 4.91 14.33C2.612 13.866 0.96 11.847 0.96 9.50303C0.96 9.48203 0.96 9.46103 0.96 9.44103C1.645 9.82303 2.411 10.034 3.195 10.057C1.031 8.61203 0.363 5.73403 1.67 3.48403C4.17 6.56003 7.859 8.43003 11.818 8.62903C11.421 6.91903 11.964 5.12703 13.242 3.92403C15.225 2.05903 18.344 2.15503 20.209 4.13803C21.312 3.92103 22.369 3.51603 23.336 2.94303C22.968 4.08303 22.199 5.05103 21.171 5.66703C22.148 5.55003 23.101 5.28903 24 4.89103C23.339 5.88003 22.507 6.74303 21.543 7.44003Z" fill="#FFE9DC"/>
</g>
<defs>
<clipPath id="clip0_3009_2440">
<rect width="24" height="24" fill="white" transform="translate(0 0.335938)"/>
</clipPath>
</defs>
</svg>
